<svg data-v-6805eed4="" version="1.0" xmlns="http://www.w3.org/2000/svg" xmlns:xlink="http://www.w3.org/1999/xlink" width="100%" height="100%" viewBox="0 0 340.000000 250.000000" preserveAspectRatio="xMidYMid meet" color-interpolation-filters="sRGB" style="margin: auto;">   <g data-v-6805eed4="" fill="#333" class="iconlettersvg-g iconlettersvg" transform="translate(59.5294189453125,21.000282287597656)"><g><g class="tp-name"><g transform="scale(4.1600000000000135)"><g transform="translate(0, 0)"><g class="name-imagesvg"><g><rect fill="#333" fill-opacity="0" stroke-width="2" x="0" y="0" width="53.110858955598616" height="50" class="image-rect"></rect> <svg filter="url(#colors8723830006)" x="0" y="0" width="53.110858955598616" height="50" filtersec="colorsb5906485285" class="image-svg-svg primary" style="overflow: visible;"><svg xmlns="http://www.w3.org/2000/svg" viewBox="0 0 28.17 26.52"><title>资源 24</title><g fill="#323333"><path d="M16.3 12.21h1.33l-.67-2.2-.66 2.2z"></path><path d="M28.17 20.84l-.47-1.18-.47-1.18-6.91-17.39-.22-.55-.22-.54h-5.83L8.37 5.68l-.22.54-.22.54L1 24.16l-.53 1.18L0 26.52h8.52L11 24h2l.45 1.34.2.59.2.58h8.59v-.05l5.63-5.63zM25.63 20h-5.44l-.2-.59-.65-1.93h-4.82l-.71 1.95-.2.57H7l.47-1.19 7-17.39.22-.54h4.61l.22.55 6.91 17.37.47 1.2z"></path></g></svg></svg> <defs><filter id="colors8723830006"><feColorMatrix type="matrix" values="0 0 0 0 0.19921875  0 0 0 0 0.19921875  0 0 0 0 0.19921875  0 0 0 1 0" class="icon-fecolormatrix"></feColorMatrix></filter> <filter id="colorsf6901080196"><feColorMatrix type="matrix" values="0 0 0 0 0.99609375  0 0 0 0 0.99609375  0 0 0 0 0.99609375  0 0 0 1 0" class="icon-fecolormatrix"></feColorMatrix></filter> <filter id="colorsb5906485285"><feColorMatrix type="matrix" values="0 0 0 0 0  0 0 0 0 0  0 0 0 0 0  0 0 0 1 0" class="icon-fecolormatrix"></feColorMatrix></filter></defs></g></g></g></g></g></g> <!----></g><defs v-gra="od"></defs></svg>